{
  "source": "C:\\Users\\Peter\\Desktop\\stuff\\MIUN\\quantitative_research\\video_compression\\videos\\BVI-HD\\RockWater_1920x1080_30fps.mp4",
  "output": "C:\\Users\\Peter\\Desktop\\stuff\\MIUN\\quantitative_research\\video_compression\\compressed_videos\\BVI-HD\\h264\\4\\RockWater_1920x1080_30fps_h264.mp4",
  "codec": "h264",
  "ok": "Input #0, mov,mp4,m4a,3gp,3g2,mj2, from 'C:\\Users\\Peter\\Desktop\\stuff\\MIUN\\quantitative_research\\video_compression\\videos\\BVI-HD\\RockWater_1920x1080_30fps.mp4':\n  Metadata:\n    major_brand     : isom\n    minor_version   : 512\n    compatible_brands: isomiso2avc1mp41\n    encoder         : Lavf54.28.101\n  Duration: 00:00:05.00, start: 0.000000, bitrate: 245943 kb/s\n  Stream #0:0[0x1](und): Video: h264 (High 4:4:4 Predictive) (avc1 / 0x31637661), yuv420p(progressive), 1920x1080, 245940 kb/s, 30 fps, 30 tbr, 30 tbn (default)\n    Metadata:\n      handler_name    : VideoHandler\n      vendor_id       : [0][0][0][0]\n[out#0/mp4 @ 00000183ead41440] Codec AVOption b:a (set bitrate (in bits/s)) has not been used for any stream. The most likely reason is either wrong type (e.g. a video option with no video streams) or that it is a private option of some decoder which was not actually used for any stream.\nStream mapping:\n  Stream #0:0 -> #0:0 (h264 (native) -> h264 (libx264))\nPress [q] to stop, [?] for help\n[libx264 @ 00000183eb5f47c0] using cpu capabilities: MMX2 SSE2Fast SSSE3 SSE4.2 AVX FMA3 BMI2 AVX2\n[libx264 @ 00000183eb5f47c0] profile High, level 5.0, 4:2:0, 8-bit\n[libx264 @ 00000183eb5f47c0] 264 - core 165 r3222 b35605a - H.264/MPEG-4 AVC codec - Copyleft 2003-2025 - http://www.videolan.org/x264.html - options: cabac=1 ref=5 deblock=1:0:0 analyse=0x3:0x113 me=hex subme=8 psy=1 psy_rd=1.00:0.00 mixed_ref=1 me_range=16 chroma_me=1 trellis=2 8x8dct=1 cqm=0 deadzone=21,11 fast_pskip=1 chroma_qp_offset=-2 threads=18 lookahead_threads=3 sliced_threads=0 nr=0 decimate=1 interlaced=0 bluray_compat=0 constrained_intra=0 bframes=3 b_pyramid=2 b_adapt=1 b_bias=0 direct=3 weightb=1 open_gop=0 weightp=2 keyint=250 keyint_min=25 scenecut=40 intra_refresh=0 rc_lookahead=50 rc=cbr mbtree=1 bitrate=4000 ratetol=1.0 qcomp=0.60 qpmin=0 qpmax=69 qpstep=4 vbv_maxrate=4000 vbv_bufsize=4000 nal_hrd=none filler=0 ip_ratio=1.40 aq=1:1.00\nOutput #0, mp4, to 'C:\\Users\\Peter\\Desktop\\stuff\\MIUN\\quantitative_research\\video_compression\\compressed_videos\\BVI-HD\\h264\\4\\RockWater_1920x1080_30fps_h264.mp4':\n  Metadata:\n    major_brand     : isom\n    minor_version   : 512\n    compatible_brands: isomiso2avc1mp41\n    encoder         : Lavf62.3.100\n  Stream #0:0(und): Video: h264 (avc1 / 0x31637661), yuv420p(tv, progressive), 1920x1080, q=2-31, 4000 kb/s, 30 fps, 15360 tbn (default)\n    Metadata:\n      encoder         : Lavc62.11.100 libx264\n      handler_name    : VideoHandler\n      vendor_id       : [0][0][0][0]\n    Side data:\n      cpb: bitrate max/min/avg: 4000000/0/4000000 buffer size: 4000000 vbv_delay: N/A\nframe=    0 fps=0.0 q=0.0 size=       0KiB time=N/A bitrate=N/A speed=N/A elapsed=0:00:00.50    \nframe=    0 fps=0.0 q=0.0 size=       0KiB time=N/A bitrate=N/A speed=N/A elapsed=0:00:01.02    \nframe=   17 fps= 11 q=39.0 size=     256KiB time=00:00:00.50 bitrate=4195.1kbits/s speed=0.32x elapsed=0:00:01.56    \nframe=   40 fps= 19 q=38.0 size=     512KiB time=00:00:01.23 bitrate=3401.1kbits/s speed=0.581x elapsed=0:00:02.12    \nframe=   62 fps= 23 q=38.0 size=     768KiB time=00:00:02.00 bitrate=3145.9kbits/s speed=0.749x elapsed=0:00:02.66    \nframe=   89 fps= 28 q=38.0 size=    1280KiB time=00:00:02.90 bitrate=3615.9kbits/s speed=0.907x elapsed=0:00:03.19    \nframe=  121 fps= 33 q=37.0 size=    1792KiB time=00:00:03.96 bitrate=3701.0kbits/s speed=1.07x elapsed=0:00:03.71    \n[mp4 @ 00000183ead41540] Starting second pass: moving the moov atom to the beginning of the file\n[out#0/mp4 @ 00000183ead41440] video:2312KiB audio:0KiB subtitle:0KiB other streams:0KiB global headers:0KiB muxing overhead: 0.113000%\nframe=  150 fps= 37 q=-1.0 Lsize=    2314KiB time=00:00:04.93 bitrate=3843.1kbits/s speed= 1.2x elapsed=0:00:04.09    \n[libx264 @ 00000183eb5f47c0] frame I:1     Avg QP:35.14  size: 50586\n[libx264 @ 00000183eb5f47c0] frame P:40    Avg QP:36.66  size: 24022\n[libx264 @ 00000183eb5f47c0] frame B:109   Avg QP:39.67  size: 12432\n[libx264 @ 00000183eb5f47c0] consecutive B-frames:  1.3%  4.0%  4.0% 90.7%\n[libx264 @ 00000183eb5f47c0] mb I  I16..4: 35.3% 61.0%  3.7%\n[libx264 @ 00000183eb5f47c0] mb P  I16..4: 20.5% 12.0%  0.4%  P16..4: 40.3%  4.7%  2.9%  0.0%  0.0%    skip:19.2%\n[libx264 @ 00000183eb5f47c0] mb B  I16..4:  2.7%  2.7%  0.1%  B16..8: 47.5%  4.9%  0.4%  direct: 1.7%  skip:40.1%  L0:50.8% L1:47.8% BI: 1.4%\n[libx264 @ 00000183eb5f47c0] 8x8 transform intra:41.6% inter:76.7%\n[libx264 @ 00000183eb5f47c0] direct mvs  spatial:91.7% temporal:8.3%\n[libx264 @ 00000183eb5f47c0] coded y,uvDC,uvAC intra: 19.3% 7.4% 0.0% inter: 8.3% 0.8% 0.0%\n[libx264 @ 00000183eb5f47c0] i16 v,h,dc,p:  8% 43%  9% 40%\n[libx264 @ 00000183eb5f47c0] i8 v,h,dc,ddl,ddr,vr,hd,vl,hu:  5% 17% 18%  7%  9%  5% 17%  6% 16%\n[libx264 @ 00000183eb5f47c0] i4 v,h,dc,ddl,ddr,vr,hd,vl,hu:  5% 12% 20%  7%  9%  6% 13%  8% 20%\n[libx264 @ 00000183eb5f47c0] i8c dc,h,v,p: 94%  6%  0%  0%\n[libx264 @ 00000183eb5f47c0] Weighted P-Frames: Y:10.0% UV:0.0%\n[libx264 @ 00000183eb5f47c0] ref P L0: 48.3%  8.4% 19.4% 12.4% 10.8%  0.7%\n[libx264 @ 00000183eb5f47c0] ref B L0: 63.8% 20.3% 11.8%  4.1%\n[libx264 @ 00000183eb5f47c0] ref B L1: 91.7%  8.3%\n[libx264 @ 00000183eb5f47c0] kb/s:3786.40\n",
  "seconds": 4.251769542694092,
  "probe_out": {}
}